<?xml version="1.0" encoding="utf-8"?>
<!-- Generator: Adobe Illustrator 16.0.0, SVG Export Plug-In . SVG Version: 6.00 Build 0)  -->
<!DOCTYPE svg PUBLIC "-//W3C//DTD SVG 1.1//EN" "http://www.w3.org/Graphics/SVG/1.1/DTD/svg11.dtd">
<svg version="1.1" id="Layer_1" xmlns="http://www.w3.org/2000/svg" xmlns:xlink="http://www.w3.org/1999/xlink" x="0px" y="0px"
	 width="5017.01px" height="2017.01px" viewBox="0 0 5017.01 2017.01" enable-background="new 0 0 5017.01 2017.01"
	 xml:space="preserve">
<g>
	<defs>
		<rect id="SVGID_1_" y="0.002" width="5017.008" height="2017.008"/>
	</defs>
	<clipPath id="SVGID_2_">
		<use xlink:href="#SVGID_1_"  overflow="visible"/>
	</clipPath>
	<path clip-path="url(#SVGID_2_)" fill="none" stroke="#FFFFFF" stroke-width="70" stroke-miterlimit="10" d="M1610.887,580.524
		c-296.364-82.532-548.522,5.42-653.75,273.197"/>
	
		<line clip-path="url(#SVGID_2_)" fill="none" stroke="#FFFFFF" stroke-width="70" stroke-miterlimit="10" x1="989.504" y1="832.146" x2="801.928" y2="832.146"/>
	<path clip-path="url(#SVGID_2_)" fill="none" stroke="#FFFFFF" stroke-width="70" stroke-miterlimit="10" d="M831.863,813.577
		c-111.963,225.255-75.987,525.04,137.603,692.351"/>
	<path clip-path="url(#SVGID_2_)" d="M1670.608,593.842c0,18.211-14.763,32.975-32.975,32.975
		c-18.211,0-32.974-14.764-32.974-32.975s14.763-32.975,32.974-32.975C1655.846,560.867,1670.608,575.631,1670.608,593.842"/>
	
		<circle clip-path="url(#SVGID_2_)" fill="#FFFFFF" stroke="#FFFFFF" stroke-width="70" stroke-miterlimit="10" cx="1637.634" cy="593.842" r="32.974"/>
	<path clip-path="url(#SVGID_2_)" d="M1017.858,1521.497c0,18.211-14.763,32.975-32.975,32.975
		c-18.211,0-32.974-14.764-32.974-32.975s14.763-32.975,32.974-32.975C1003.096,1488.522,1017.858,1503.286,1017.858,1521.497"/>
	
		<circle clip-path="url(#SVGID_2_)" fill="#FFFFFF" stroke="#FFFFFF" stroke-width="70" stroke-miterlimit="10" cx="984.884" cy="1521.497" r="32.974"/>
	<path clip-path="url(#SVGID_2_)" fill="none" stroke="#FFFFFF" stroke-width="70" stroke-miterlimit="10" d="M915.495,605.021
		c159.649-188.622,388.486-267.552,700.343-170.015"/>
	<path clip-path="url(#SVGID_2_)" d="M1678.674,449.374c0,18.211-14.763,32.975-32.975,32.975
		c-18.211,0-32.974-14.764-32.974-32.975s14.763-32.975,32.974-32.975C1663.911,416.398,1678.674,431.163,1678.674,449.374"/>
	
		<circle clip-path="url(#SVGID_2_)" fill="#FFFFFF" stroke="#FFFFFF" stroke-width="70" stroke-miterlimit="10" cx="1645.699" cy="449.374" r="32.975"/>
	<path clip-path="url(#SVGID_2_)" d="M929.622,625.541c0,18.211-14.763,32.975-32.975,32.975c-18.211,0-32.974-14.764-32.974-32.975
		c0-18.211,14.763-32.975,32.974-32.975C914.858,592.565,929.622,607.33,929.622,625.541"/>
	
		<circle clip-path="url(#SVGID_2_)" fill="#FFFFFF" stroke="#FFFFFF" stroke-width="70" stroke-miterlimit="10" cx="896.647" cy="625.541" r="32.975"/>
	<path clip-path="url(#SVGID_2_)" fill="none" stroke="#FFFFFF" stroke-width="70" stroke-miterlimit="10" d="M959.087,964.296
		c-48.519,201.452-20.818,368.21,170.417,510.41"/>
	<path clip-path="url(#SVGID_2_)" d="M1001.402,942.5c0,18.211-14.763,32.975-32.975,32.975c-18.211,0-32.974-14.764-32.974-32.975
		s14.763-32.975,32.974-32.975C986.64,909.525,1001.402,924.289,1001.402,942.5"/>
	
		<circle clip-path="url(#SVGID_2_)" fill="#FFFFFF" stroke="#FFFFFF" stroke-width="70" stroke-miterlimit="10" cx="968.428" cy="942.5" r="32.974"/>
	
		<line clip-path="url(#SVGID_2_)" fill="none" stroke="#FFFFFF" stroke-width="70" stroke-miterlimit="10" x1="1115.682" y1="1445.794" x2="1115.682" y2="1672.232"/>
	<path clip-path="url(#SVGID_2_)" fill="none" stroke="#FFFFFF" stroke-width="70" stroke-miterlimit="10" d="M1105.918,1646.345
		c102.363,86.07,392.325,75.691,508.082-8.065"/>
	<path clip-path="url(#SVGID_2_)" d="M1679.95,1613.37c0,18.211-14.763,32.975-32.975,32.975c-18.211,0-32.974-14.764-32.974-32.975
		c0-18.212,14.763-32.976,32.974-32.976C1665.187,1580.395,1679.95,1595.158,1679.95,1613.37"/>
	
		<circle clip-path="url(#SVGID_2_)" fill="#FFFFFF" stroke="#FFFFFF" stroke-width="70" stroke-miterlimit="10" cx="1646.975" cy="1613.37" r="32.975"/>
	<path clip-path="url(#SVGID_2_)" fill="none" stroke="#FFFFFF" stroke-width="70" stroke-miterlimit="10" d="M1276.68,1534.75
		c97.401,15.373,242.213-7.29,327.413-57.044"/>
	<path clip-path="url(#SVGID_2_)" d="M1647.631,1459.738c0.821,18.193-3.921,36.72-22.114,37.541
		c-18.192,0.821-33.606-13.261-34.427-31.454c-0.821-18.192,13.261-33.606,31.454-34.428S1646.81,1441.545,1647.631,1459.738"/>
	<path clip-path="url(#SVGID_2_)" fill="none" stroke="#FFFFFF" stroke-width="70" stroke-miterlimit="10" d="M1647.631,1459.738
		c0.821,18.193-3.921,36.72-22.114,37.541c-18.192,0.821-33.606-13.261-34.427-31.454c-0.821-18.192,13.261-33.606,31.454-34.428
		S1646.81,1441.545,1647.631,1459.738z"/>
	<path clip-path="url(#SVGID_2_)" d="M1266.782,1519.284c0.821,18.193-13.262,33.607-31.455,34.429
		c-18.192,0.82-33.606-13.263-34.427-31.455c-0.821-18.193,13.261-33.607,31.454-34.429
		C1250.547,1487.009,1265.961,1501.092,1266.782,1519.284"/>
	
		<circle clip-path="url(#SVGID_2_)" fill="#FFFFFF" stroke="#FFFFFF" stroke-width="70" stroke-miterlimit="10" cx="1233.841" cy="1520.771" r="32.975"/>
	
		<line clip-path="url(#SVGID_2_)" fill="none" stroke="#FFFFFF" stroke-width="70" stroke-miterlimit="10" x1="2123.502" y1="465.594" x2="2123.502" y2="1047.63"/>
	
		<line clip-path="url(#SVGID_2_)" fill="none" stroke="#FFFFFF" stroke-width="70" stroke-miterlimit="10" x1="2088.504" y1="1035.175" x2="2321.438" y2="1035.175"/>
	
		<line clip-path="url(#SVGID_2_)" fill="none" stroke="#FFFFFF" stroke-width="70" stroke-miterlimit="10" x1="2286.577" y1="1025.834" x2="2286.577" y2="1635.866"/>
	<path clip-path="url(#SVGID_2_)" d="M2156.477,440.685c0,18.211-14.763,32.975-32.975,32.975
		c-18.211,0-32.975-14.764-32.975-32.975s14.764-32.975,32.975-32.975C2141.714,407.71,2156.477,422.474,2156.477,440.685"/>
	
		<circle clip-path="url(#SVGID_2_)" fill="#FFFFFF" stroke="#FFFFFF" stroke-width="70" stroke-miterlimit="10" cx="2123.502" cy="440.685" r="32.975"/>
	<path clip-path="url(#SVGID_2_)" d="M2319.552,1654.548c0,18.211-14.763,32.975-32.975,32.975
		c-18.211,0-32.975-14.764-32.975-32.975s14.764-32.976,32.975-32.976C2304.789,1621.572,2319.552,1636.337,2319.552,1654.548"/>
	
		<circle clip-path="url(#SVGID_2_)" fill="#FFFFFF" stroke="#FFFFFF" stroke-width="70" stroke-miterlimit="10" cx="2286.577" cy="1654.548" r="32.975"/>
	
		<line clip-path="url(#SVGID_2_)" fill="none" stroke="#FFFFFF" stroke-width="70" stroke-miterlimit="10" x1="2123.502" y1="1201.573" x2="2123.502" y2="1629.987"/>
	<path clip-path="url(#SVGID_2_)" d="M2156.477,1172.106c0,18.211-14.763,32.975-32.975,32.975
		c-18.211,0-32.975-14.764-32.975-32.975s14.764-32.975,32.975-32.975C2141.714,1139.132,2156.477,1153.896,2156.477,1172.106"/>
	
		<circle clip-path="url(#SVGID_2_)" fill="#FFFFFF" stroke="#FFFFFF" stroke-width="70" stroke-miterlimit="10" cx="2123.502" cy="1172.106" r="32.975"/>
	<path clip-path="url(#SVGID_2_)" d="M2156.477,1656.184c0,18.211-14.763,32.975-32.975,32.975
		c-18.211,0-32.975-14.764-32.975-32.975s14.764-32.976,32.975-32.976C2141.714,1623.208,2156.477,1637.973,2156.477,1656.184"/>
	
		<circle clip-path="url(#SVGID_2_)" fill="#FFFFFF" stroke="#FFFFFF" stroke-width="70" stroke-miterlimit="10" cx="2123.502" cy="1656.184" r="32.975"/>
	<path clip-path="url(#SVGID_2_)" fill="none" stroke="#FFFFFF" stroke-width="70" stroke-miterlimit="10" d="M2392.691,436.857
		c447.209-11.405,612.272,254.071,447.209,552.724"/>
	<path clip-path="url(#SVGID_2_)" d="M2392.691,433.243c0,18.211-14.763,32.975-32.975,32.975
		c-18.211,0-32.975-14.764-32.975-32.975s14.764-32.975,32.975-32.975C2377.929,400.269,2392.691,415.032,2392.691,433.243"/>
	
		<circle clip-path="url(#SVGID_2_)" fill="#FFFFFF" stroke="#FFFFFF" stroke-width="70" stroke-miterlimit="10" cx="2359.717" cy="433.243" r="32.975"/>
	<path clip-path="url(#SVGID_2_)" d="M2854.118,1006.612c0,18.21-14.763,32.975-32.975,32.975
		c-18.211,0-32.975-14.765-32.975-32.975c0-18.211,14.764-32.975,32.975-32.975
		C2839.355,973.637,2854.118,988.401,2854.118,1006.612"/>
	
		<circle clip-path="url(#SVGID_2_)" fill="#FFFFFF" stroke="#FFFFFF" stroke-width="70" stroke-miterlimit="10" cx="2821.144" cy="1006.612" r="32.975"/>
	<path clip-path="url(#SVGID_2_)" fill="none" stroke="#FFFFFF" stroke-width="70" stroke-miterlimit="10" d="M2742.674,769.69
		c0,170.409-72.064,283.91-293.399,278.563"/>
	<path clip-path="url(#SVGID_2_)" d="M2454.226,1048.253c0,18.211-14.763,32.976-32.975,32.976
		c-18.211,0-32.974-14.765-32.974-32.976s14.763-32.975,32.974-32.975C2439.462,1015.278,2454.226,1030.042,2454.226,1048.253"/>
	
		<circle clip-path="url(#SVGID_2_)" fill="#FFFFFF" stroke="#FFFFFF" stroke-width="70" stroke-miterlimit="10" cx="2421.251" cy="1048.253" r="32.975"/>
	<path clip-path="url(#SVGID_2_)" d="M2766.308,737.671c0,18.211-14.763,32.976-32.975,32.976
		c-18.211,0-32.975-14.764-32.975-32.976c0-18.211,14.764-32.975,32.975-32.975C2751.545,704.696,2766.308,719.46,2766.308,737.671"
		/>
	
		<circle clip-path="url(#SVGID_2_)" fill="#FFFFFF" stroke="#FFFFFF" stroke-width="70" stroke-miterlimit="10" cx="2733.333" cy="737.671" r="32.975"/>
	
		<line clip-path="url(#SVGID_2_)" fill="none" stroke="#FFFFFF" stroke-width="70" stroke-miterlimit="10" x1="3423.619" y1="442.726" x2="3423.619" y2="1193.638"/>
	<path clip-path="url(#SVGID_2_)" fill="none" stroke="#FFFFFF" stroke-width="70" stroke-miterlimit="10" d="M3423.482,1192.638
		c-3.751,314.297,228.838,398.591,412.658,314.297"/>
	<path clip-path="url(#SVGID_2_)" d="M3456.594,424.043c0,18.211-14.764,32.975-32.975,32.975s-32.975-14.764-32.975-32.975
		c0-18.211,14.764-32.975,32.975-32.975S3456.594,405.833,3456.594,424.043"/>
	
		<circle clip-path="url(#SVGID_2_)" fill="#FFFFFF" stroke="#FFFFFF" stroke-width="70" stroke-miterlimit="10" cx="3423.619" cy="424.043" r="32.975"/>
	<path clip-path="url(#SVGID_2_)" d="M3855.521,1486.825c0,18.211-14.764,32.976-32.976,32.976
		c-18.211,0-32.974-14.765-32.974-32.976s14.763-32.975,32.974-32.975C3840.758,1453.851,3855.521,1468.614,3855.521,1486.825"/>
	
		<circle clip-path="url(#SVGID_2_)" fill="#FFFFFF" stroke="#FFFFFF" stroke-width="70" stroke-miterlimit="10" cx="3822.547" cy="1486.825" r="32.975"/>
	<path clip-path="url(#SVGID_2_)" fill="none" stroke="#FFFFFF" stroke-width="70" stroke-miterlimit="10" d="M3258.759,1313.332
		c79.568,514.51,750.287,445.031,816.861,101.364"/>
	<path clip-path="url(#SVGID_2_)" d="M3291.733,1279.081c0,18.211-14.763,32.976-32.975,32.976
		c-18.211,0-32.975-14.765-32.975-32.976s14.764-32.975,32.975-32.975C3276.971,1246.106,3291.733,1260.87,3291.733,1279.081"/>
	
		<circle clip-path="url(#SVGID_2_)" fill="#FFFFFF" stroke="#FFFFFF" stroke-width="70" stroke-miterlimit="10" cx="3258.759" cy="1279.081" r="32.975"/>
	
		<line clip-path="url(#SVGID_2_)" fill="none" stroke="#FFFFFF" stroke-width="70" stroke-miterlimit="10" x1="4125.701" y1="442.726" x2="4125.701" y2="1073.304"/>
	<path clip-path="url(#SVGID_2_)" d="M4157.139,424.104c0,18.211-14.764,32.975-32.976,32.975
		c-18.211,0-32.974-14.764-32.974-32.975s14.763-32.975,32.974-32.975C4142.375,391.13,4157.139,405.894,4157.139,424.104"/>
	
		<circle clip-path="url(#SVGID_2_)" fill="#FFFFFF" stroke="#FFFFFF" stroke-width="70" stroke-miterlimit="10" cx="4124.164" cy="424.104" r="32.975"/>
	<path clip-path="url(#SVGID_2_)" d="M4101.053,1414.695c0,18.211-14.764,32.976-32.975,32.976s-32.975-14.765-32.975-32.976
		s14.764-32.975,32.975-32.975S4101.053,1396.484,4101.053,1414.695"/>
	
		<circle clip-path="url(#SVGID_2_)" fill="#FFFFFF" stroke="#FFFFFF" stroke-width="70" stroke-miterlimit="10" cx="4068.078" cy="1414.695" r="32.975"/>
	
		<line clip-path="url(#SVGID_2_)" fill="none" stroke="#FFFFFF" stroke-width="70" stroke-miterlimit="10" x1="3936.201" y1="1070.829" x2="4161.024" y2="1072.479"/>
	<path clip-path="url(#SVGID_2_)" fill="none" stroke="#FFFFFF" stroke-width="70" stroke-miterlimit="10" d="M3970.29,1071.653
		c8.509,116.903-1.56,219.485-21.47,305.33"/>
	<path clip-path="url(#SVGID_2_)" d="M3968.176,1376.983c0,18.211-14.763,32.976-32.975,32.976
		c-18.211,0-32.975-14.765-32.975-32.976s14.764-32.975,32.975-32.975C3953.413,1344.009,3968.176,1358.772,3968.176,1376.983"/>
	
		<circle clip-path="url(#SVGID_2_)" fill="#FFFFFF" stroke="#FFFFFF" stroke-width="70" stroke-miterlimit="10" cx="3935.201" cy="1376.983" r="32.975"/>
	
		<line clip-path="url(#SVGID_2_)" fill="none" stroke="#FFFFFF" stroke-width="70" stroke-miterlimit="10" x1="3252.531" y1="457.458" x2="3252.531" y2="1088.035"/>
	<path clip-path="url(#SVGID_2_)" d="M3285.506,430.955c0,18.211-14.763,32.975-32.975,32.975
		c-18.211,0-32.975-14.764-32.975-32.975s14.764-32.975,32.975-32.975C3270.743,397.979,3285.506,412.744,3285.506,430.955"/>
	
		<circle clip-path="url(#SVGID_2_)" fill="#FFFFFF" stroke="#FFFFFF" stroke-width="70" stroke-miterlimit="10" cx="3252.531" cy="430.955" r="32.975"/>
	<path clip-path="url(#SVGID_2_)" d="M3285.506,1108.426c0,18.211-14.763,32.975-32.975,32.975
		c-18.211,0-32.975-14.764-32.975-32.975s14.764-32.975,32.975-32.975C3270.743,1075.451,3285.506,1090.215,3285.506,1108.426"/>
	
		<circle clip-path="url(#SVGID_2_)" fill="#FFFFFF" stroke="#FFFFFF" stroke-width="70" stroke-miterlimit="10" cx="3252.531" cy="1108.426" r="32.975"/>
	
		<line clip-path="url(#SVGID_2_)" fill="none" stroke="#FFFFFF" stroke-width="70" stroke-miterlimit="10" x1="3971.29" y1="450.424" x2="3971.29" y2="901.139"/>
	<path clip-path="url(#SVGID_2_)" d="M4002.728,423.982c0,18.211-14.764,32.975-32.976,32.975
		c-18.211,0-32.974-14.764-32.974-32.975s14.763-32.975,32.974-32.975C3987.964,391.007,4002.728,405.771,4002.728,423.982"/>
	
		<circle clip-path="url(#SVGID_2_)" fill="#FFFFFF" stroke="#FFFFFF" stroke-width="70" stroke-miterlimit="10" cx="3969.753" cy="423.982" r="32.975"/>
	<path clip-path="url(#SVGID_2_)" d="M4004.265,934.576c0,18.211-14.764,32.975-32.976,32.975
		c-18.211,0-32.974-14.764-32.974-32.975s14.763-32.975,32.974-32.975C3989.501,901.602,4004.265,916.365,4004.265,934.576"/>
	
		<circle clip-path="url(#SVGID_2_)" fill="#FFFFFF" stroke="#FFFFFF" stroke-width="70" stroke-miterlimit="10" cx="3971.29" cy="934.576" r="32.975"/>
</g>
</svg>
